<svg id="Layer_1" data-name="Layer 1" xmlns="http://www.w3.org/2000/svg" viewBox="0 0 466 100"><defs><style>.cls-1,.cls-2{fill:#fff;}.cls-2{font-size:40px;font-family:Montserrat-Regular, Montserrat;letter-spacing:0.05em;}.cls-3{letter-spacing:-0.01em;}.cls-4{letter-spacing:0em;}.cls-5{letter-spacing:0.05em;}</style></defs><path class="cls-1" d="M33.58,85.5l.65-38.09a4.42,4.42,0,0,1,6.16-4l11.25,4.81a4.42,4.42,0,0,1,2.68,4.14l-.48,28.69a4.42,4.42,0,0,1-2.77,4L39.65,89.68A4.43,4.43,0,0,1,33.58,85.5Z"/><path class="cls-1" d="M111.4,46.33l-.09,39.49a4,4,0,0,1-5.46,3.65l-12.25-5a3.94,3.94,0,0,1-2.45-3.67l.06-29.32a4,4,0,0,1,2.43-3.64l12.27-5.14A4,4,0,0,1,111.4,46.33Z"/><rect class="cls-1" x="41.14" y="-4.96" width="3.79" height="68.68" rx="1.9" transform="translate(41.08 -22.69) rotate(53.53)"/><rect class="cls-1" x="97.65" y="-7.9" width="3.79" height="71.47" rx="1.9" transform="translate(22.58 96.84) rotate(-57.5)"/><text class="cls-2" transform="translate(126.32 89.26)">MY VILLA S<tspan class="cls-3" x="246.04" y="0">T</tspan><tspan class="cls-4" x="269.92" y="0">A</tspan><tspan class="cls-5" x="299.48" y="0">Y</tspan></text></svg>